<?xml version="1.0" encoding="UTF-8"?>
<svg width="250px" height="251px" viewBox="0 0 250 251" version="1.1" xmlns="http://www.w3.org/2000/svg" xmlns:xlink="http://www.w3.org/1999/xlink">
    <!-- Generator: Sketch 47.1 (45422) - http://www.bohemiancoding.com/sketch -->
    <!-- <g id="Page-1" stroke="none" stroke-width="1" fill="none" fill-rule="evenodd"> -->
    <!-- <g id="Page-1" stroke="#00FF00" stroke-width="1" fill="#FF0000" fill-rule="initial"> -->
    <g id="circles" stroke="#fff" stroke-width="1" fill="none">
        <!-- <g id="circles" stroke="#3B2554"> -->
        <!-- <g id="circles" stroke="#0000FF"> -->
        <!-- <g> -->
        <!-- <g> -->
            <path d="M124.8252,159.289 C106.1662,159.289 91.0402,144.081 91.0402,125.32 C91.0402,106.559 106.1662,91.351 124.8252,91.351 C143.4842,91.351 158.6102,106.559 158.6102,125.32 C158.6102,144.081 143.4842,159.289 124.8252,159.289 Z" id="Stroke-381" stroke-width="0.151"></path>
            <path d="M124.8252,160.9731 C105.2412,160.9731 89.3652,145.0111 89.3652,125.3201 C89.3652,105.6291 105.2412,89.6661 124.8252,89.6661 C144.4092,89.6661 160.2852,105.6291 160.2852,125.3201 C160.2852,145.0111 144.4092,160.9731 124.8252,160.9731 Z" id="Stroke-383" stroke-width="0.158"></path>
            <path d="M124.8252,162.7807 C104.2482,162.7807 87.5672,146.0087 87.5672,125.3197 C87.5672,104.6307 104.2482,87.8587 124.8252,87.8587 C145.4022,87.8587 162.0832,104.6307 162.0832,125.3197 C162.0832,146.0087 145.4022,162.7807 124.8252,162.7807 Z" id="Stroke-385" stroke-width="0.166"></path>
            <path d="M124.8252,164.6381 C103.2282,164.6381 85.7202,147.0341 85.7202,125.3201 C85.7202,103.6051 103.2282,86.0011 124.8252,86.0011 C146.4222,86.0011 163.9302,103.6051 163.9302,125.3201 C163.9302,147.0341 146.4222,164.6381 124.8252,164.6381 Z" id="Stroke-387" stroke-width="0.174"></path>
            <path d="M124.8252,166.769 C102.0572,166.769 83.6002,148.211 83.6002,125.32 C83.6002,102.428 102.0572,83.871 124.8252,83.871 C147.5932,83.871 166.0502,102.428 166.0502,125.32 C166.0502,148.211 147.5932,166.769 124.8252,166.769 Z" id="Stroke-389" stroke-width="0.184"></path>
            <path d="M124.8252,168.8241 C100.9292,168.8241 81.5562,149.3461 81.5562,125.3201 C81.5562,101.2931 100.9292,81.8151 124.8252,81.8151 C148.7212,81.8151 168.0942,101.2931 168.0942,125.3201 C168.0942,149.3461 148.7212,168.8241 124.8252,168.8241 Z" id="Stroke-391" stroke-width="0.193"></path>
            <path d="M124.8252,171.0302 C99.7172,171.0302 79.3632,150.5652 79.3632,125.3202 C79.3632,100.0742 99.7172,79.6092 124.8252,79.6092 C149.9332,79.6092 170.2872,100.0742 170.2872,125.3202 C170.2872,150.5652 149.9332,171.0302 124.8252,171.0302 Z" id="Stroke-393" stroke-width="0.203"></path>
            <path d="M124.8252,173.2963 C98.4722,173.2963 77.1082,151.8163 77.1082,125.3193 C77.1082,98.8233 98.4722,77.3433 124.8252,77.3433 C151.1782,77.3433 172.5412,98.8233 172.5412,125.3193 C172.5412,151.8163 151.1782,173.2963 124.8252,173.2963 Z" id="Stroke-395" stroke-width="0.213"></path>
            <path d="M124.8252,175.5102 C97.2562,175.5102 74.9072,153.0392 74.9072,125.3202 C74.9072,97.6002 97.2562,75.1292 124.8252,75.1292 C152.3942,75.1292 174.7432,97.6002 174.7432,125.3202 C174.7432,153.0392 152.3942,175.5102 124.8252,175.5102 Z" id="Stroke-397" stroke-width="0.223"></path>
            <path d="M124.8252,177.9985 C95.8892,177.9985 72.4322,154.4135 72.4322,125.3195 C72.4322,96.2265 95.8892,72.6415 124.8252,72.6415 C153.7612,72.6415 177.2182,96.2265 177.2182,125.3195 C177.2182,154.4135 153.7612,177.9985 124.8252,177.9985 Z" id="Stroke-399" stroke-width="0.234"></path>
            <path d="M124.8252,180.6694 C94.4222,180.6694 69.7752,155.8884 69.7752,125.3194 C69.7752,94.7514 94.4222,69.9694 124.8252,69.9694 C155.2282,69.9694 179.8752,94.7514 179.8752,125.3194 C179.8752,155.8884 155.2282,180.6694 124.8252,180.6694 Z" id="Stroke-401" stroke-width="0.245"></path>
            <path d="M124.8252,183.414 C92.9142,183.414 67.0462,157.404 67.0462,125.32 C67.0462,93.235 92.9142,67.226 124.8252,67.226 C156.7362,67.226 182.6042,93.235 182.6042,125.32 C182.6042,157.404 156.7362,183.414 124.8252,183.414 Z" id="Stroke-403" stroke-width="0.258"></path>
            <path d="M124.8252,186.0981 C91.4402,186.0981 64.3762,158.8871 64.3762,125.3201 C64.3762,91.7531 91.4402,64.5411 124.8252,64.5411 C158.2102,64.5411 185.2742,91.7531 185.2742,125.3201 C185.2742,158.8871 158.2102,186.0981 124.8252,186.0981 Z" id="Stroke-405" stroke-width="0.27"></path>
            <path d="M124.8252,188.5741 C90.0802,188.5741 61.9132,160.2541 61.9132,125.3201 C61.9132,90.3851 90.0802,62.0651 124.8252,62.0651 C159.5702,62.0651 187.7362,90.3851 187.7362,125.3201 C187.7362,160.2541 159.5702,188.5741 124.8252,188.5741 Z" id="Stroke-407" stroke-width="0.281"></path>
            <path d="M124.8252,191.7812 C88.3182,191.7812 58.7232,162.0252 58.7232,125.3202 C58.7232,88.6142 88.3182,58.8582 124.8252,58.8582 C161.3322,58.8582 190.9262,88.6142 190.9262,125.3202 C190.9262,162.0252 161.3322,191.7812 124.8252,191.7812 Z" id="Stroke-409" stroke-width="0.295"></path>
            <path d="M124.8252,195.0766 C86.5082,195.0766 55.4462,163.8456 55.4462,125.3196 C55.4462,86.7936 86.5082,55.5626 124.8252,55.5626 C163.1422,55.5626 194.2042,86.7936 194.2042,125.3196 C194.2042,163.8456 163.1422,195.0766 124.8252,195.0766 Z" id="Stroke-411" stroke-width="0.309"></path>
            <path d="M124.8252,198.2948 C84.7402,198.2948 52.2452,165.6228 52.2452,125.3198 C52.2452,85.0168 84.7402,52.3438 124.8252,52.3438 C164.9092,52.3438 197.4052,85.0168 197.4052,125.3198 C197.4052,165.6228 164.9092,198.2948 124.8252,198.2948 Z" id="Stroke-413" stroke-width="0.324"></path>
            <path d="M124.8252,201.9135 C82.7532,201.9135 48.6472,167.6215 48.6472,125.3195 C48.6472,83.0185 82.7532,48.7265 124.8252,48.7265 C166.8972,48.7265 201.0032,83.0185 201.0032,125.3195 C201.0032,167.6215 166.8972,201.9135 124.8252,201.9135 Z" id="Stroke-415" stroke-width="0.34"></path>
            <path d="M124.8252,205.7973 C80.6192,205.7973 44.7842,169.7663 44.7842,125.3193 C44.7842,80.8733 80.6192,44.8423 124.8252,44.8423 C169.0312,44.8423 204.8662,80.8733 204.8662,125.3193 C204.8662,169.7663 169.0312,205.7973 124.8252,205.7973 Z" id="Stroke-417" stroke-width="0.357"></path>
            <path d="M124.8252,209.787 C78.4282,209.787 40.8152,171.97 40.8152,125.32 C40.8152,78.669 78.4282,40.852 124.8252,40.852 C171.2222,40.852 208.8352,78.669 208.8352,125.32 C208.8352,171.97 171.2222,209.787 124.8252,209.787 Z" id="Stroke-419" stroke-width="0.375"></path>
            <path d="M124.8252,214.3647 C75.9132,214.3647 36.2622,174.4977 36.2622,125.3197 C36.2622,76.1417 75.9132,36.2747 124.8252,36.2747 C173.7372,36.2747 213.3872,76.1417 213.3872,125.3197 C213.3872,174.4977 173.7372,214.3647 124.8252,214.3647 Z" id="Stroke-421" stroke-width="0.395"></path>
            <path d="M124.8252,218.7797 C73.4882,218.7797 31.8722,176.9367 31.8722,125.3197 C31.8722,73.7027 73.4882,31.8597 124.8252,31.8597 C176.1612,31.8597 217.7782,73.7027 217.7782,125.3197 C217.7782,176.9367 176.1612,218.7797 124.8252,218.7797 Z" id="Stroke-423" stroke-width="0.414"></path>
            <path d="M124.8252,223.5185 C70.8852,223.5185 27.1582,179.5535 27.1582,125.3195 C27.1582,71.0855 70.8852,27.1215 124.8252,27.1215 C178.7652,27.1215 222.4922,71.0855 222.4922,125.3195 C222.4922,179.5535 178.7652,223.5185 124.8252,223.5185 Z" id="Stroke-425" stroke-width="0.435"></path>
            <path d="M124.8252,228.3876 C68.2112,228.3876 22.3162,182.2426 22.3162,125.3196 C22.3162,68.3966 68.2112,22.2516 124.8252,22.2516 C181.4392,22.2516 227.3342,68.3966 227.3342,125.3196 C227.3342,182.2426 181.4392,228.3876 124.8252,228.3876 Z" id="Stroke-427" stroke-width="0.457"></path>
            <path d="M124.8252,233.143 C65.5992,233.143 17.5862,184.869 17.5862,125.32 C17.5862,65.77 65.5992,17.497 124.8252,17.497 C184.0512,17.497 232.0642,65.77 232.0642,125.32 C232.0642,184.869 184.0512,233.143 124.8252,233.143 Z" id="Stroke-429" stroke-width="0.478"></path>
            <path d="M124.8252,238.4887 C62.6622,238.4887 12.2692,187.8217 12.2692,125.3197 C12.2692,62.8187 62.6622,12.1507 124.8252,12.1507 C186.9882,12.1507 237.3812,62.8187 237.3812,125.3197 C237.3812,187.8217 186.9882,238.4887 124.8252,238.4887 Z" id="Stroke-431" stroke-width="0.502"></path>
            <path d="M124.8252,244.2275 C59.5102,244.2275 6.5622,190.9905 6.5622,125.3195 C6.5622,59.6485 59.5102,6.4125 124.8252,6.4125 C190.1402,6.4125 243.0882,59.6485 243.0882,125.3195 C243.0882,190.9905 190.1402,244.2275 124.8252,244.2275 Z" id="Stroke-433" stroke-width="0.527"></path>
            <path d="M124.8252,250.123 C56.2722,250.123 0.6992,194.247 0.6992,125.32 C0.6992,56.393 56.2722,0.517 124.8252,0.517 C193.3782,0.517 248.9512,56.393 248.9512,125.32 C248.9512,194.247 193.3782,250.123 124.8252,250.123 Z" id="Stroke-435" stroke-width="0.553"></path>
        <!-- </g> -->
    </g>
</svg>