<?xml version="1.0" encoding="UTF-8"?>
<svg width="389px" height="64px" viewBox="0 0 389 64" version="1.1" xmlns="http://www.w3.org/2000/svg" xmlns:xlink="http://www.w3.org/1999/xlink">
    <!-- Generator: Sketch 47.1 (45422) - http://www.bohemiancoding.com/sketch -->
    <title>Rollins_AddressLogoLockup_BrandColors</title>
    <desc>Created with Sketch.</desc>
    <defs></defs>
    <g id="Page-1" stroke="none" stroke-width="1" fill="none" fill-rule="evenodd">
        <g id="Rollins_AddressLogoLockup_BrandColors">
            <path d="M103.199,60.501 L103.199,61.538 L98.862,61.538 L98.862,60.501 L100.649,60.501 L100.649,55.352 C100.45,55.602 100.19,55.812 99.869,55.983 C99.548,56.153 99.195,56.276 98.813,56.352 L98.563,55.364 C99.037,55.273 99.469,55.081 99.856,54.789 C100.243,54.497 100.508,54.144 100.649,53.727 L101.875,53.727 L101.875,60.501 L103.199,60.501" id="Fill-1" fill="#1E1D42"></path>
            <path d="M109.224,58.826 L109.224,54.94 L105.861,58.826 L109.224,58.826 Z M112.098,59.851 L110.448,59.851 L110.448,61.7 L109.224,61.7 L109.224,59.851 L104.6,59.851 L104.6,58.826 L109.123,53.614 L110.448,53.614 L110.448,58.826 L112.098,58.826 L112.098,59.851 L112.098,59.851 Z" id="Fill-2" fill="#1E1D42"></path>
            <path d="M118.51,57.039 C118.984,57.222 119.366,57.499 119.653,57.87 C119.94,58.241 120.085,58.693 120.085,59.226 C120.085,59.701 119.945,60.137 119.666,60.532 C119.387,60.928 119.01,61.24 118.535,61.47 C118.06,61.698 117.539,61.814 116.973,61.814 C116.264,61.814 115.644,61.713 115.11,61.513 C114.577,61.314 114.035,61.047 113.485,60.713 L113.898,59.688 C114.981,60.405 115.956,60.764 116.822,60.764 C117.364,60.764 117.833,60.624 118.229,60.345 C118.624,60.066 118.822,59.685 118.822,59.201 C118.822,58.751 118.626,58.407 118.234,58.17 C117.843,57.933 117.31,57.813 116.635,57.813 C116.21,57.813 115.796,57.859 115.392,57.951 C114.987,58.043 114.527,58.185 114.011,58.376 L114.011,58.001 L113.998,58.001 L113.998,53.789 L119.784,53.789 L119.784,54.839 L115.173,54.839 L115.173,57.001 C115.806,56.843 116.401,56.764 116.96,56.764 C117.518,56.764 118.035,56.856 118.51,57.039" id="Fill-3" fill="#1E1D42"></path>
            <path d="M134.507,59.701 C134.099,60.301 133.58,60.784 132.95,61.151 C132.321,61.518 131.578,61.7 130.72,61.7 C129.903,61.7 129.155,61.511 128.477,61.132 C127.797,60.753 127.262,60.226 126.87,59.551 C126.479,58.876 126.283,58.113 126.283,57.264 C126.283,56.389 126.475,55.612 126.857,54.933 C127.241,54.254 127.753,53.727 128.396,53.352 C129.036,52.977 129.729,52.789 130.47,52.789 C131.069,52.789 131.601,52.898 132.064,53.114 C132.525,53.331 132.915,53.635 133.232,54.026 L133.244,52.965 L134.406,52.965 L134.406,55.751 L133.582,55.826 C132.982,54.493 132.007,53.827 130.657,53.827 C130.115,53.827 129.613,53.967 129.151,54.245 C128.689,54.525 128.318,54.925 128.039,55.445 C127.76,55.966 127.62,56.568 127.62,57.251 C127.62,57.901 127.758,58.483 128.032,58.995 C128.308,59.507 128.681,59.909 129.151,60.201 C129.622,60.492 130.145,60.639 130.72,60.639 C131.395,60.639 131.968,60.492 132.439,60.201 C132.909,59.909 133.319,59.51 133.669,59.001 L134.507,59.701" id="Fill-4" fill="#1E1D42"></path>
            <polyline id="Fill-5" fill="#1E1D42" points="139.942 60.551 139.942 61.538 136.043 61.538 136.043 60.551 137.356 60.551 137.356 53.952 136.043 53.952 136.043 52.965 138.58 52.965 138.58 60.551 139.942 60.551"></polyline>
            <path d="M142.269,54.102 C142.085,53.96 141.993,53.781 141.993,53.565 C141.993,53.339 142.085,53.154 142.269,53.008 C142.452,52.862 142.677,52.789 142.943,52.789 C143.227,52.789 143.46,52.862 143.644,53.008 C143.826,53.154 143.918,53.339 143.918,53.565 C143.918,53.781 143.826,53.96 143.644,54.102 C143.46,54.243 143.227,54.315 142.943,54.315 C142.677,54.315 142.452,54.243 142.269,54.102 Z M145.03,60.551 L145.03,61.538 L141.144,61.538 L141.144,60.551 L142.469,60.551 L142.469,56.639 L141.144,56.639 L141.144,55.651 L143.693,55.651 L143.693,60.551 L145.03,60.551 L145.03,60.551 Z" id="Fill-6" fill="#1E1D42"></path>
            <path d="M154.804,60.551 L154.804,61.538 L151.329,61.538 L151.329,60.551 L152.416,60.551 L152.416,58.113 C152.416,57.655 152.302,57.295 152.072,57.032 C151.844,56.771 151.517,56.639 151.092,56.639 C150.367,56.639 149.6,57.097 148.792,58.014 L148.792,60.551 L149.879,60.551 L149.879,61.538 L146.242,61.538 L146.242,60.551 L147.567,60.551 L147.567,56.639 L146.242,56.639 L146.242,55.651 L148.792,55.651 L148.792,57.039 C149.259,56.523 149.706,56.137 150.136,55.883 C150.565,55.629 151.024,55.502 151.517,55.502 C152.191,55.502 152.712,55.718 153.079,56.151 C153.445,56.585 153.629,57.227 153.629,58.076 L153.629,60.551 L154.804,60.551" id="Fill-7" fill="#1E1D42"></path>
            <path d="M160.928,61.126 C160.619,61.309 160.316,61.45 160.022,61.551 C159.726,61.651 159.386,61.7 159.003,61.7 C158.361,61.7 157.851,61.499 157.472,61.095 C157.093,60.691 156.903,60.113 156.903,59.363 L156.903,56.639 L155.591,56.639 L155.591,55.651 L156.903,55.651 L156.903,54.015 L158.128,54.015 L158.128,55.651 L160.077,55.651 L160.077,56.639 L158.128,56.639 L158.128,59.376 C158.128,59.801 158.224,60.113 158.415,60.314 C158.607,60.514 158.865,60.613 159.19,60.613 C159.423,60.613 159.645,60.578 159.853,60.507 C160.061,60.437 160.277,60.334 160.502,60.201 L160.928,61.126" id="Fill-8" fill="#1E1D42"></path>
            <path d="M166.215,60.463 C166.515,60.288 166.75,60.04 166.921,59.72 C167.092,59.4 167.177,59.026 167.177,58.601 C167.177,58.176 167.092,57.804 166.921,57.483 C166.75,57.162 166.515,56.914 166.215,56.739 C165.915,56.564 165.577,56.477 165.202,56.477 C164.628,56.477 164.154,56.67 163.784,57.058 C163.413,57.445 163.228,57.96 163.228,58.601 C163.228,59.243 163.413,59.757 163.784,60.145 C164.154,60.532 164.628,60.726 165.202,60.726 C165.577,60.726 165.915,60.639 166.215,60.463 Z M163.59,61.325 C163.09,61.068 162.692,60.701 162.397,60.226 C162.101,59.751 161.953,59.209 161.953,58.601 C161.953,57.984 162.101,57.441 162.397,56.97 C162.692,56.499 163.09,56.135 163.59,55.876 C164.09,55.618 164.628,55.489 165.202,55.489 C165.769,55.489 166.3,55.618 166.796,55.876 C167.292,56.135 167.69,56.501 167.989,56.977 C168.289,57.451 168.44,57.993 168.44,58.601 C168.44,59.209 168.294,59.751 168.002,60.226 C167.71,60.701 167.316,61.068 166.821,61.325 C166.325,61.584 165.785,61.713 165.202,61.713 C164.628,61.713 164.09,61.584 163.59,61.325 L163.59,61.325 Z" id="Fill-9" fill="#1E1D42"></path>
            <path d="M178.538,60.551 L178.538,61.538 L175.064,61.538 L175.064,60.551 L176.15,60.551 L176.15,58.113 C176.15,57.655 176.036,57.295 175.807,57.032 C175.578,56.771 175.251,56.639 174.826,56.639 C174.102,56.639 173.334,57.097 172.526,58.014 L172.526,60.551 L173.613,60.551 L173.613,61.538 L169.977,61.538 L169.977,60.551 L171.302,60.551 L171.302,56.639 L169.977,56.639 L169.977,55.651 L172.526,55.651 L172.526,57.039 C172.993,56.523 173.44,56.137 173.87,55.883 C174.299,55.629 174.759,55.502 175.251,55.502 C175.926,55.502 176.446,55.718 176.814,56.151 C177.18,56.585 177.363,57.227 177.363,58.076 L177.363,60.551 L178.538,60.551" id="Fill-10" fill="#1E1D42"></path>
            <path d="M190.948,57.776 C191.507,58.193 191.786,58.747 191.786,59.439 C191.786,59.889 191.663,60.286 191.417,60.632 C191.171,60.978 190.832,61.242 190.398,61.426 C189.965,61.609 189.478,61.7 188.937,61.7 C188.345,61.7 187.782,61.575 187.249,61.325 C186.716,61.075 186.225,60.726 185.774,60.276 L185.774,61.526 L184.637,61.526 L184.637,58.639 L185.362,58.601 C185.804,59.243 186.341,59.747 186.975,60.113 C187.607,60.481 188.236,60.663 188.861,60.663 C189.328,60.663 189.709,60.564 190.005,60.363 C190.301,60.163 190.448,59.893 190.448,59.551 C190.448,59.176 190.24,58.854 189.823,58.582 C189.407,58.312 188.699,58.047 187.699,57.789 C186.657,57.514 185.895,57.153 185.412,56.708 C184.929,56.262 184.687,55.714 184.687,55.065 C184.687,54.614 184.81,54.217 185.056,53.87 C185.302,53.525 185.633,53.258 186.049,53.07 C186.466,52.883 186.92,52.789 187.411,52.789 C188.569,52.789 189.507,53.214 190.224,54.064 L190.224,52.965 L191.361,52.965 L191.361,55.814 L190.661,55.852 C190.312,55.185 189.882,54.681 189.374,54.339 C188.865,53.998 188.307,53.827 187.699,53.827 C187.207,53.827 186.806,53.933 186.493,54.146 C186.181,54.359 186.024,54.644 186.024,55.002 C186.024,55.368 186.214,55.683 186.593,55.945 C186.972,56.208 187.595,56.456 188.461,56.688 C189.562,56.997 190.391,57.359 190.948,57.776" id="Fill-11" fill="#1E1D42"></path>
            <path d="M198.585,61.126 C198.276,61.309 197.974,61.45 197.679,61.551 C197.383,61.651 197.043,61.7 196.66,61.7 C196.019,61.7 195.508,61.499 195.129,61.095 C194.75,60.691 194.561,60.113 194.561,59.363 L194.561,56.639 L193.248,56.639 L193.248,55.651 L194.561,55.651 L194.561,54.015 L195.785,54.015 L195.785,55.651 L197.734,55.651 L197.734,56.639 L195.785,56.639 L195.785,59.376 C195.785,59.801 195.881,60.113 196.072,60.314 C196.264,60.514 196.523,60.613 196.848,60.613 C197.08,60.613 197.302,60.578 197.51,60.507 C197.718,60.437 197.935,60.334 198.159,60.201 L198.585,61.126" id="Fill-12" fill="#1E1D42"></path>
            <path d="M200.097,61.47 C199.897,61.316 199.797,61.121 199.797,60.888 C199.797,60.639 199.897,60.435 200.097,60.276 C200.297,60.117 200.538,60.038 200.822,60.038 C201.13,60.038 201.382,60.117 201.578,60.276 C201.773,60.435 201.872,60.639 201.872,60.888 C201.872,61.121 201.773,61.316 201.578,61.47 C201.382,61.623 201.13,61.7 200.822,61.7 C200.538,61.7 200.297,61.623 200.097,61.47" id="Fill-13" fill="#1E1D42"></path>
            <polyline id="Fill-14" fill="#1E1D42" points="219.107 54.002 217.544 54.002 217.544 61.613 216.907 61.626 210.896 54.789 210.896 60.501 212.433 60.501 212.433 61.538 208.059 61.538 208.059 60.501 209.671 60.501 209.671 54.002 208.059 54.002 208.059 52.965 210.896 52.965 216.345 59.301 216.345 54.002 214.732 54.002 214.732 52.965 219.107 52.965 219.107 54.002"></polyline>
            <path d="M222.462,56.852 C222.074,57.109 221.797,57.46 221.631,57.901 C222.264,58.126 222.897,58.238 223.53,58.238 C223.946,58.238 224.29,58.162 224.562,58.008 C224.832,57.854 224.968,57.639 224.968,57.363 C224.968,57.097 224.851,56.881 224.617,56.714 C224.384,56.547 224.084,56.464 223.718,56.464 C223.268,56.464 222.849,56.593 222.462,56.852 Z M226.317,60.663 C225.518,61.363 224.605,61.713 223.58,61.713 C223.022,61.713 222.493,61.597 221.993,61.363 C221.493,61.13 221.089,60.788 220.78,60.338 C220.472,59.889 220.318,59.356 220.318,58.738 C220.318,58.08 220.477,57.506 220.793,57.014 C221.109,56.523 221.523,56.146 222.03,55.883 C222.538,55.62 223.071,55.489 223.63,55.489 C224.122,55.489 224.562,55.568 224.948,55.727 C225.336,55.885 225.641,56.106 225.861,56.389 C226.082,56.672 226.192,56.997 226.192,57.363 C226.192,57.914 225.957,58.341 225.486,58.645 C225.016,58.949 224.45,59.101 223.793,59.101 C223.367,59.101 222.972,59.058 222.606,58.97 C222.238,58.882 221.868,58.755 221.493,58.589 L221.493,58.701 C221.493,59.093 221.587,59.439 221.774,59.738 C221.962,60.038 222.214,60.268 222.53,60.426 C222.847,60.584 223.192,60.663 223.567,60.663 C224.417,60.663 225.159,60.397 225.792,59.863 L226.317,60.663 L226.317,60.663 Z" id="Fill-15" fill="#1E1D42"></path>
            <polyline id="Fill-16" fill="#1E1D42" points="237.952 56.639 237.065 56.639 235.128 61.7 234.516 61.7 232.604 57.602 230.703 61.7 230.079 61.7 228.166 56.639 227.254 56.639 227.254 55.651 230.453 55.651 230.453 56.552 229.366 56.552 230.566 59.988 232.391 55.814 233.065 55.814 234.865 59.939 236.027 56.552 234.94 56.552 234.94 55.651 237.952 55.651 237.952 56.639"></polyline>
            <polyline id="Fill-17" fill="#1E1D42" points="248.826 58.188 248.826 60.501 250.476 60.501 250.476 61.538 245.864 61.538 245.864 60.501 247.539 60.501 247.539 58.264 244.464 54.002 243.252 54.002 243.252 52.965 247.189 52.965 247.189 54.002 245.964 54.002 248.301 57.376 250.551 54.002 249.139 54.002 249.139 52.965 253.075 52.965 253.075 54.002 251.814 54.002 248.826 58.188"></polyline>
            <path d="M257.649,60.463 C257.949,60.288 258.185,60.04 258.356,59.72 C258.526,59.4 258.611,59.026 258.611,58.601 C258.611,58.176 258.526,57.804 258.356,57.483 C258.185,57.162 257.949,56.914 257.649,56.739 C257.35,56.564 257.012,56.477 256.637,56.477 C256.063,56.477 255.589,56.67 255.219,57.058 C254.848,57.445 254.662,57.96 254.662,58.601 C254.662,59.243 254.848,59.757 255.219,60.145 C255.589,60.532 256.063,60.726 256.637,60.726 C257.012,60.726 257.35,60.639 257.649,60.463 Z M255.024,61.325 C254.524,61.068 254.127,60.701 253.831,60.226 C253.535,59.751 253.388,59.209 253.388,58.601 C253.388,57.984 253.535,57.441 253.831,56.97 C254.127,56.499 254.524,56.135 255.024,55.876 C255.524,55.618 256.063,55.489 256.637,55.489 C257.203,55.489 257.734,55.618 258.231,55.876 C258.727,56.135 259.124,56.501 259.424,56.977 C259.724,57.451 259.874,57.993 259.874,58.601 C259.874,59.209 259.729,59.751 259.437,60.226 C259.145,60.701 258.751,61.068 258.256,61.325 C257.76,61.584 257.22,61.713 256.637,61.713 C256.063,61.713 255.524,61.584 255.024,61.325 L255.024,61.325 Z" id="Fill-18" fill="#1E1D42"></path>
            <path d="M267.299,55.502 L267.299,58.001 L266.212,58.001 L266.212,56.714 C265.887,56.714 265.532,56.835 265.149,57.076 C264.766,57.318 264.37,57.659 263.962,58.102 L263.962,60.551 L265.299,60.551 L265.299,61.538 L261.412,61.538 L261.412,60.551 L262.737,60.551 L262.737,56.639 L261.412,56.639 L261.412,55.651 L263.962,55.651 L263.962,57.126 C264.403,56.618 264.863,56.22 265.343,55.933 C265.822,55.646 266.299,55.502 266.774,55.502 L267.299,55.502" id="Fill-19" fill="#1E1D42"></path>
            <g id="Group-23" transform="translate(268.000000, 52.000000)" fill="#1E1D42">
                <path d="M5.035,6.476 C5.469,6.459 5.835,6.361 6.136,6.183 C6.436,6.003 6.585,5.751 6.585,5.426 C6.585,5.143 6.483,4.927 6.279,4.776 C6.075,4.626 5.794,4.552 5.436,4.552 C5.102,4.552 4.737,4.639 4.342,4.814 C3.946,4.988 3.548,5.243 3.148,5.576 L3.148,6.064 C3.79,6.339 4.419,6.476 5.035,6.476 Z M8.935,8.913 C8.727,9.163 8.493,9.359 8.235,9.501 C7.977,9.643 7.668,9.713 7.311,9.713 C6.769,9.713 6.302,9.509 5.91,9.101 C5.519,8.693 5.252,8.117 5.11,7.376 C4.761,7.368 4.432,7.319 4.123,7.233 C3.815,7.145 3.49,7.022 3.148,6.863 L3.148,8.551 L4.386,8.551 L4.386,9.538 L0.636,9.538 L0.636,8.551 L1.948,8.551 L1.948,1.952 L0.636,1.952 L0.636,0.965 L3.148,0.965 L3.148,4.714 C3.982,3.931 4.844,3.539 5.735,3.539 C6.335,3.539 6.837,3.697 7.241,4.014 C7.646,4.331 7.848,4.78 7.848,5.363 C7.848,5.83 7.69,6.231 7.373,6.563 C7.056,6.897 6.651,7.13 6.16,7.264 C6.276,7.731 6.44,8.074 6.648,8.295 C6.856,8.516 7.094,8.626 7.36,8.626 C7.727,8.626 8.039,8.481 8.298,8.189 L8.935,8.913 L8.935,8.913 Z" id="Fill-20"></path>
                <path d="M10.371,11.651 C10.755,11.25 11.055,10.89 11.272,10.569 C11.487,10.248 11.621,9.93 11.671,9.613 C11.513,9.663 11.321,9.689 11.097,9.689 C10.855,9.689 10.648,9.615 10.478,9.47 C10.307,9.323 10.222,9.134 10.222,8.901 C10.222,8.659 10.315,8.457 10.503,8.295 C10.69,8.132 10.926,8.051 11.209,8.051 C11.55,8.051 11.827,8.168 12.04,8.401 C12.252,8.634 12.358,8.93 12.358,9.288 C12.358,9.722 12.213,10.169 11.921,10.632 C11.629,11.094 11.23,11.55 10.722,12 L10.371,11.651" id="Fill-22"></path>
            </g>
            <polyline id="Fill-24" fill="#1E1D42" points="297.643 54.002 296.08 54.002 296.08 61.613 295.443 61.626 289.432 54.789 289.432 60.501 290.969 60.501 290.969 61.538 286.595 61.538 286.595 60.501 288.207 60.501 288.207 54.002 286.595 54.002 286.595 52.965 289.432 52.965 294.881 59.301 294.881 54.002 293.269 54.002 293.269 52.965 297.643 52.965 297.643 54.002"></polyline>
            <polyline id="Fill-25" fill="#1E1D42" points="304.116 58.188 304.116 60.501 305.766 60.501 305.766 61.538 301.154 61.538 301.154 60.501 302.829 60.501 302.829 58.264 299.754 54.002 298.542 54.002 298.542 52.965 302.479 52.965 302.479 54.002 301.254 54.002 303.591 57.376 305.841 54.002 304.429 54.002 304.429 52.965 308.365 52.965 308.365 54.002 307.104 54.002 304.116 58.188"></polyline>
            <polyline id="Fill-26" fill="#D3D4D1" points="36.111 1.124 36.111 12.698 31.379 12.698 31.379 5.394 20.731 5.394 20.731 32.143 27.417 32.143 27.417 36.412 8.694 36.412 8.694 32.143 15.433 32.143 15.433 5.394 4.732 5.394 4.732 12.698 0 12.698 0 1.124 36.111 1.124"></polyline>
            <polyline id="Fill-27" fill="#D3D4D1" points="77.726 5.394 77.726 32.143 84.362 32.143 84.362 36.412 65.843 36.412 65.843 32.143 72.376 32.143 72.376 20.518 51.954 20.518 51.954 32.143 58.487 32.143 58.487 36.412 39.968 36.412 39.968 32.143 46.605 32.143 46.605 5.394 39.968 5.394 39.968 1.124 58.487 1.124 58.487 5.394 51.954 5.394 51.954 16.454 72.376 16.454 72.376 5.394 65.843 5.394 65.843 1.124 84.362 1.124 84.362 5.394 77.726 5.394"></polyline>
            <polyline id="Fill-28" fill="#D3D4D1" points="118.209 12.442 118.209 5.394 99.896 5.394 99.896 16.659 108.024 16.659 108.024 11.876 112.139 11.876 112.139 25.353 108.024 25.353 108.024 20.569 99.896 20.569 99.896 32.143 118.209 32.143 118.209 25.096 122.942 25.096 122.942 36.412 88.065 36.412 88.065 32.143 94.649 32.143 94.649 5.394 88.065 5.394 88.065 1.124 122.942 1.124 122.942 12.442 118.209 12.442"></polyline>
            <path d="M146.819,17.329 L155.513,17.329 C157.708,17.329 159.525,16.788 160.966,15.708 C162.406,14.628 163.126,13.145 163.126,11.259 C163.126,9.44 162.413,8.009 160.992,6.963 C159.568,5.918 157.742,5.394 155.513,5.394 L146.819,5.394 L146.819,17.329 Z M175.008,33.429 C172.848,35.898 170.344,37.132 167.499,37.132 C164.515,37.132 162.003,36.052 159.962,33.892 C157.922,31.732 156.268,28.406 154.998,23.912 L154.175,21.341 L146.819,21.341 L146.819,32.143 L153.301,32.143 L153.301,36.412 L134.885,36.412 L134.885,32.194 L141.521,32.194 L141.521,5.394 L134.885,5.394 L134.885,1.124 L155.359,1.124 C159.372,1.124 162.543,2.034 164.875,3.851 C167.207,5.669 168.373,8.138 168.373,11.259 C168.373,13.83 167.542,16 165.878,17.766 C164.214,19.532 161.875,20.637 158.857,21.083 L159.782,23.604 C160.844,26.622 162.028,28.817 163.333,30.189 C164.634,31.56 166.109,32.246 167.755,32.246 C168.785,32.246 169.659,32.04 170.379,31.628 C171.099,31.217 171.768,30.669 172.385,29.982 L175.008,33.429 L175.008,33.429 Z" id="Fill-29" fill="#1E1D42"></path>
            <polyline id="Fill-30" fill="#1E1D42" points="245.251 24.17 245.251 36.412 212.175 36.412 212.175 32.143 218.811 32.143 218.811 5.394 212.175 5.394 212.175 1.124 230.693 1.124 230.693 5.394 224.11 5.394 224.11 32.143 240.262 32.143 240.262 24.17 245.251 24.17"></polyline>
            <polyline id="Fill-31" fill="#1E1D42" points="282.495 24.17 282.495 36.412 249.418 36.412 249.418 32.143 256.054 32.143 256.054 5.394 249.418 5.394 249.418 1.124 267.937 1.124 267.937 5.394 261.353 5.394 261.353 32.143 277.504 32.143 277.504 24.17 282.495 24.17"></polyline>
            <polyline id="Fill-32" fill="#1E1D42" points="298.596 5.394 298.596 32.143 305.282 32.143 305.282 36.412 286.661 36.412 286.661 32.143 293.296 32.143 293.296 5.394 286.661 5.394 286.661 1.124 305.282 1.124 305.282 5.394 298.596 5.394"></polyline>
            <polyline id="Fill-33" fill="#1E1D42" points="354.407 5.394 347.977 5.394 347.977 36.721 345.353 36.773 320.611 8.635 320.611 32.143 326.939 32.143 326.939 36.412 308.933 36.412 308.933 32.143 315.569 32.143 315.569 5.394 308.933 5.394 308.933 1.124 320.611 1.124 343.039 27.204 343.039 5.394 336.403 5.394 336.403 1.124 354.407 1.124 354.407 5.394"></polyline>
            <path d="M384.911,20.929 C387.208,22.644 388.357,24.924 388.357,27.771 C388.357,29.622 387.852,31.26 386.84,32.683 C385.828,34.107 384.43,35.196 382.648,35.949 C380.865,36.703 378.857,37.081 376.63,37.081 C374.194,37.081 371.879,36.567 369.685,35.538 C367.489,34.51 365.467,33.069 363.615,31.217 L363.615,36.361 L358.935,36.361 L358.935,24.479 L361.918,24.324 C363.734,26.965 365.946,29.04 368.554,30.549 C371.16,32.058 373.749,32.811 376.32,32.811 C378.241,32.811 379.81,32.4 381.027,31.577 C382.245,30.754 382.854,29.64 382.854,28.234 C382.854,26.69 381.995,25.362 380.281,24.247 C378.566,23.133 375.652,22.044 371.536,20.981 C367.25,19.849 364.112,18.366 362.124,16.531 C360.134,14.697 359.14,12.442 359.14,9.767 C359.14,7.914 359.646,6.278 360.658,4.854 C361.669,3.432 363.031,2.333 364.747,1.563 C366.461,0.791 368.33,0.405 370.354,0.405 C375.12,0.405 378.977,2.153 381.927,5.651 L381.927,1.124 L386.608,1.124 L386.608,12.853 L383.728,13.007 C382.288,10.264 380.521,8.19 378.43,6.783 C376.337,5.377 374.039,4.673 371.536,4.673 C369.513,4.673 367.859,5.111 366.572,5.986 C365.287,6.86 364.644,8.035 364.644,9.509 C364.644,11.019 365.423,12.313 366.985,13.393 C368.544,14.474 371.107,15.494 374.674,16.454 C379.202,17.723 382.613,19.215 384.911,20.929" id="Fill-34" fill="#1E1D42"></path>
            <polygon id="Fill-35" fill="#F1C254" points="182.075 36.674 203.501 36.674 203.501 32.296 182.075 32.296"></polygon>
            <path d="M199.9,14.59 C199.9,16.153 199.584,17.563 198.961,18.778 C198.341,19.985 197.507,20.899 196.409,21.568 C195.306,22.241 194.08,22.568 192.661,22.568 C191.211,22.568 189.927,22.236 188.841,21.584 C187.744,20.924 186.918,20.02 186.313,18.818 C185.701,17.603 185.39,16.181 185.39,14.59 C185.39,13.022 185.701,11.604 186.315,10.376 C186.919,9.166 187.752,8.251 188.859,7.58 C189.972,6.906 191.216,6.579 192.661,6.579 C194.081,6.579 195.307,6.906 196.407,7.577 C197.508,8.251 198.344,9.164 198.961,10.367 C199.584,11.586 199.9,13.006 199.9,14.59 Z M203.978,7.849 C202.841,5.858 201.254,4.282 199.258,3.168 C197.277,2.062 195.057,1.502 192.661,1.502 C190.241,1.502 188.01,2.062 186.028,3.168 C184.035,4.282 182.448,5.851 181.312,7.83 C180.179,9.803 179.605,12.077 179.605,14.59 C179.605,17.081 180.179,19.343 181.312,21.318 C182.45,23.3 184.038,24.868 186.029,25.979 C188.01,27.086 190.242,27.647 192.661,27.647 C195.057,27.647 197.277,27.086 199.258,25.979 C201.251,24.868 202.838,23.299 203.975,21.318 C205.108,19.344 205.683,17.081 205.683,14.59 C205.683,12.101 205.109,9.832 203.978,7.849 L203.978,7.849 Z" id="Fill-36" fill="#1E1D42"></path>
        </g>
    </g>
</svg>