<?xml version="1.0" encoding="UTF-8"?>
<svg width="45px" height="45px" viewBox="0 0 45 45" version="1.1" xmlns="http://www.w3.org/2000/svg" xmlns:xlink="http://www.w3.org/1999/xlink">
    <!-- Generator: Sketch 47.1 (45422) - http://www.bohemiancoding.com/sketch -->
    <title>phone</title>
    <desc>Created with Sketch.</desc>
    <defs></defs>
    <g id="Page-1" stroke="none" stroke-width="1" fill="none" fill-rule="evenodd">
        <g id="phone" transform="translate(1.000000, 1.000000)">
            <path d="M42.8066,21.3508 C42.8066,33.1328 33.2546,42.6838 21.4736,42.6838 C9.6916,42.6838 0.1396,33.1328 0.1396,21.3508 C0.1396,9.5688 9.6916,0.0178 21.4736,0.0178 C33.2546,0.0178 42.8066,9.5688 42.8066,21.3508 Z" id="Stroke-494" stroke="#FFFFFF"></path>
            <path d="M0.14,21.351 C0.14,33.134 9.691,42.684 21.473,42.684 L21.473,42.684 C33.254,42.684 42.807,33.134 42.807,21.351 L42.807,21.351 C42.807,9.569 33.254,0.017 21.473,0.017 L21.473,0.017 C9.691,0.017 0.14,9.569 0.14,21.351" id="Fill-492" fill="#272149" fill-rule="nonzero"></path>
            <path d="M15.0654,32.9636 L19.6484,28.3806 C19.9664,28.0616 19.9664,27.5456 19.6484,27.2266 L18.1074,25.6856 C17.8624,25.4406 17.8404,25.0846 17.9494,24.7546 C18.4504,23.2456 19.9644,20.3256 24.2424,18.4556 C24.5574,18.3176 24.9234,18.3746 25.1674,18.6176 L26.7114,20.1626 C27.0304,20.4816 27.5464,20.4816 27.8664,20.1626 L32.6014,15.4266 C32.9204,15.1086 32.9204,14.5916 32.6014,14.2736 L29.9824,11.6536 C29.7654,11.4366 29.4444,11.3596 29.1524,11.4556 C26.3384,12.3846 14.4604,14.8216 11.0904,29.5236 C11.0224,29.8196 11.0784,30.1306 11.2934,30.3446 L13.9114,32.9636 C14.2304,33.2816 14.7474,33.2816 15.0654,32.9636" id="Fill-496" fill="#FFFFFE" fill-rule="nonzero"></path>
        </g>
    </g>
</svg>