<?xml version="1.0" encoding="utf-8"?>
<!-- Generator: Adobe Illustrator 22.1.0, SVG Export Plug-In . SVG Version: 6.00 Build 0)  -->
<svg version="1.1" id="Layer_1" xmlns="http://www.w3.org/2000/svg" xmlns:xlink="http://www.w3.org/1999/xlink" x="0px" y="0px"
	 viewBox="0 0 48.3 49.1" style="enable-background:new 0 0 48.3 49.1;" xml:space="preserve">
<style type="text/css">
	.st0{fill:#FFFFFF;}
	.st1{clip-path:url(#SVGID_2_);fill:#262262;}
	.st2{clip-path:url(#SVGID_2_);fill:#272262;}
	.st3{clip-path:url(#SVGID_2_);fill:#272261;}
	.st4{clip-path:url(#SVGID_2_);fill:#282261;}
	.st5{clip-path:url(#SVGID_2_);fill:#292261;}
	.st6{clip-path:url(#SVGID_2_);fill:#2A2261;}
	.st7{clip-path:url(#SVGID_2_);fill:#2B2261;}
	.st8{clip-path:url(#SVGID_2_);fill:#2C2261;}
	.st9{clip-path:url(#SVGID_2_);fill:#2C2260;}
	.st10{clip-path:url(#SVGID_2_);fill:#2D2260;}
	.st11{clip-path:url(#SVGID_2_);fill:#2E2260;}
	.st12{clip-path:url(#SVGID_2_);fill:#2F2260;}
	.st13{clip-path:url(#SVGID_2_);fill:#302260;}
	.st14{clip-path:url(#SVGID_2_);fill:#312260;}
	.st15{clip-path:url(#SVGID_2_);fill:#32225F;}
	.st16{clip-path:url(#SVGID_2_);fill:#33225F;}
	.st17{clip-path:url(#SVGID_2_);fill:#33215F;}
	.st18{clip-path:url(#SVGID_2_);fill:#34215F;}
	.st19{clip-path:url(#SVGID_2_);fill:#35215F;}
	.st20{clip-path:url(#SVGID_2_);fill:#36215F;}
	.st21{clip-path:url(#SVGID_2_);fill:#37215E;}
	.st22{clip-path:url(#SVGID_2_);fill:#38215E;}
	.st23{clip-path:url(#SVGID_2_);fill:#39215E;}
	.st24{clip-path:url(#SVGID_2_);fill:#3A215E;}
	.st25{clip-path:url(#SVGID_2_);fill:#3B215E;}
	.st26{clip-path:url(#SVGID_2_);fill:#3C215E;}
	.st27{clip-path:url(#SVGID_2_);fill:#3C215D;}
	.st28{clip-path:url(#SVGID_2_);fill:#3D215D;}
	.st29{clip-path:url(#SVGID_2_);fill:#3E205D;}
	.st30{clip-path:url(#SVGID_2_);fill:#3F205D;}
	.st31{clip-path:url(#SVGID_2_);fill:#40205D;}
	.st32{clip-path:url(#SVGID_2_);fill:#41205C;}
	.st33{clip-path:url(#SVGID_2_);fill:#42205C;}
	.st34{clip-path:url(#SVGID_2_);fill:#43205C;}
	.st35{clip-path:url(#SVGID_2_);fill:#44205C;}
	.st36{clip-path:url(#SVGID_2_);fill:#45205B;}
	.st37{clip-path:url(#SVGID_2_);fill:#46205B;}
	.st38{clip-path:url(#SVGID_2_);fill:#47205B;}
	.st39{clip-path:url(#SVGID_2_);fill:#481F5B;}
	.st40{clip-path:url(#SVGID_2_);fill:#491F5A;}
	.st41{clip-path:url(#SVGID_2_);fill:#4A1F5A;}
	.st42{clip-path:url(#SVGID_2_);fill:#4B1F5A;}
	.st43{clip-path:url(#SVGID_2_);fill:#4C1F5A;}
	.st44{clip-path:url(#SVGID_2_);fill:#4D1F59;}
	.st45{clip-path:url(#SVGID_2_);fill:#4E1F59;}
</style>
<circle class="st0" cx="23.8" cy="25" r="21.9"/>
<g>
	<defs>
		<circle id="SVGID_1_" cx="23.8" cy="25" r="20.8"/>
	</defs>
	<clipPath id="SVGID_2_">
		<use xlink:href="#SVGID_1_"  style="overflow:visible;"/>
	</clipPath>
	<path class="st1" d="M3,4.1v41.6V4.1z"/>
	<rect x="3" y="4.1" class="st1" width="0.7" height="41.6"/>
	<rect x="3.7" y="4.1" class="st2" width="0.7" height="41.6"/>
	<rect x="4.4" y="4.1" class="st3" width="0.7" height="41.6"/>
	<rect x="5.1" y="4.1" class="st3" width="0.7" height="41.6"/>
	<rect x="5.9" y="4.1" class="st4" width="0.7" height="41.6"/>
	<rect x="6.6" y="4.1" class="st4" width="0.7" height="41.6"/>
	<rect x="7.3" y="4.1" class="st5" width="0.7" height="41.6"/>
	<rect x="8" y="4.1" class="st5" width="0.7" height="41.6"/>
	<rect x="8.7" y="4.1" class="st6" width="0.7" height="41.6"/>
	<rect x="9.4" y="4.1" class="st6" width="0.7" height="41.6"/>
	<rect x="10.2" y="4.1" class="st7" width="0.7" height="41.6"/>
	<rect x="10.9" y="4.1" class="st8" width="0.7" height="41.6"/>
	<rect x="11.6" y="4.1" class="st9" width="0.7" height="41.6"/>
	<rect x="12.3" y="4.1" class="st10" width="0.7" height="41.6"/>
	<rect x="13" y="4.1" class="st11" width="0.7" height="41.6"/>
	<rect x="13.8" y="4.1" class="st11" width="0.7" height="41.6"/>
	<rect x="14.5" y="4.1" class="st12" width="0.7" height="41.6"/>
	<rect x="15.2" y="4.1" class="st13" width="0.7" height="41.6"/>
	<rect x="15.9" y="4.1" class="st13" width="0.7" height="41.6"/>
	<rect x="16.6" y="4.1" class="st14" width="0.7" height="41.6"/>
	<rect x="17.3" y="4.1" class="st15" width="0.7" height="41.6"/>
	<rect x="18.1" y="4.1" class="st16" width="0.7" height="41.6"/>
	<rect x="18.8" y="4.1" class="st17" width="0.7" height="41.6"/>
	<rect x="19.5" y="4.1" class="st18" width="0.7" height="41.6"/>
	<rect x="20.2" y="4.1" class="st19" width="0.7" height="41.6"/>
	<rect x="20.9" y="4.1" class="st20" width="0.7" height="41.6"/>
	<rect x="21.6" y="4.1" class="st20" width="0.7" height="41.6"/>
	<rect x="22.4" y="4.1" class="st21" width="0.7" height="41.6"/>
	<rect x="23.1" y="4.1" class="st22" width="0.7" height="41.6"/>
	<rect x="23.8" y="4.1" class="st23" width="0.7" height="41.6"/>
	<rect x="24.5" y="4.1" class="st23" width="0.7" height="41.6"/>
	<rect x="25.2" y="4.1" class="st24" width="0.7" height="41.6"/>
	<rect x="25.9" y="4.1" class="st25" width="0.7" height="41.6"/>
	<rect x="26.7" y="4.1" class="st26" width="0.7" height="41.6"/>
	<rect x="27.4" y="4.1" class="st27" width="0.7" height="41.6"/>
	<rect x="28.1" y="4.1" class="st28" width="0.7" height="41.6"/>
	<rect x="28.8" y="4.1" class="st29" width="0.7" height="41.6"/>
	<rect x="29.5" y="4.1" class="st30" width="0.7" height="41.6"/>
	<rect x="30.3" y="4.1" class="st30" width="0.7" height="41.6"/>
	<rect x="31" y="4.1" class="st31" width="0.7" height="41.6"/>
	<rect x="31.7" y="4.1" class="st32" width="0.7" height="41.6"/>
	<rect x="32.4" y="4.1" class="st33" width="0.7" height="41.6"/>
	<rect x="33.1" y="4.1" class="st33" width="0.7" height="41.6"/>
	<rect x="33.8" y="4.1" class="st34" width="0.7" height="41.6"/>
	<rect x="34.6" y="4.1" class="st35" width="0.7" height="41.6"/>
	<rect x="35.3" y="4.1" class="st36" width="0.7" height="41.6"/>
	<rect x="36" y="4.1" class="st36" width="0.7" height="41.6"/>
	<rect x="36.7" y="4.1" class="st37" width="0.7" height="41.6"/>
	<rect x="37.4" y="4.1" class="st38" width="0.7" height="41.6"/>
	<rect x="38.1" y="4.1" class="st39" width="0.7" height="41.6"/>
	<rect x="38.9" y="4.1" class="st39" width="0.7" height="41.6"/>
	<rect x="39.6" y="4.1" class="st40" width="0.7" height="41.6"/>
	<rect x="40.3" y="4.1" class="st41" width="0.7" height="41.6"/>
	<rect x="41" y="4.1" class="st42" width="0.7" height="41.6"/>
	<rect x="41.7" y="4.1" class="st42" width="0.7" height="41.6"/>
	<rect x="42.4" y="4.1" class="st43" width="0.7" height="41.6"/>
	<rect x="43.2" y="4.1" class="st44" width="0.7" height="41.6"/>
	<rect x="43.9" y="4.1" class="st45" width="0.7" height="41.6"/>
	<path class="st45" d="M44.6,45.8V4.1V45.8z"/>
</g>
<g>
	<polygon class="st0" points="11.7,17.1 11.7,33 35.9,33 35.9,17.1 23.8,25.6 	"/>
	<polygon class="st0" points="13,16.9 34.6,16.9 23.7,24.2 	"/>
</g>
</svg>
