<?xml version="1.0" encoding="UTF-8"?>
<svg width="394px" height="38px" viewBox="0 0 394 38" version="1.1" xmlns="http://www.w3.org/2000/svg" xmlns:xlink="http://www.w3.org/1999/xlink">
    <!-- Generator: Sketch 47.1 (45422) - http://www.bohemiancoding.com/sketch -->
    <title>Rollins_Logo_BrandColors</title>
    <desc>Created with Sketch.</desc>
    <defs>
        <polygon id="path-1" points="0.06 36.271 0.06 0.55 36.553 0.55 36.553 36.271"></polygon>
    </defs>
    <g id="Page-1" stroke="none" stroke-width="1" fill="none" fill-rule="evenodd">
        <g id="Rollins_Logo_BrandColors">
            <g id="Group-3" transform="translate(0.000000, 1.000000)">
                <mask id="mask-2" fill="white">
                    <use xlink:href="#path-1"></use>
                </mask>
                <g id="Clip-2"></g>
                <polyline id="Fill-1" fill="#D3D4D1" mask="url(#mask-2)" points="36.553 0.55 36.553 12.267 31.763 12.267 31.763 4.873 20.985 4.873 20.985 31.95 27.753 31.95 27.753 36.271 8.8 36.271 8.8 31.95 15.622 31.95 15.622 4.873 4.791 4.873 4.791 12.267 0 12.267 0 0.55 36.553 0.55"></polyline>
            </g>
            <polyline id="Fill-4" fill="#D3D4D1" points="78.678 5.873 78.678 32.95 85.395 32.95 85.395 37.271 66.65 37.271 66.65 32.95 73.263 32.95 73.263 21.182 52.59 21.182 52.59 32.95 59.203 32.95 59.203 37.271 40.458 37.271 40.458 32.95 47.176 32.95 47.176 5.873 40.458 5.873 40.458 1.55 59.203 1.55 59.203 5.873 52.59 5.873 52.59 17.068 73.263 17.068 73.263 5.873 66.65 5.873 66.65 1.55 85.395 1.55 85.395 5.873 78.678 5.873"></polyline>
            <g id="Group-8" transform="translate(89.000000, 1.000000)">
                <polyline id="Fill-5" fill="#D3D4D1" points="30.657 12.007 30.657 4.873 12.12 4.873 12.12 16.276 20.348 16.276 20.348 11.434 24.513 11.434 24.513 25.076 20.348 25.076 20.348 20.234 12.12 20.234 12.12 31.95 30.657 31.95 30.657 24.816 35.448 24.816 35.448 36.271 0.144 36.271 0.144 31.95 6.809 31.95 6.809 4.873 0.144 4.873 0.144 0.55 35.448 0.55 35.448 12.007 30.657 12.007"></polyline>
                <path d="M59.618,16.953 L68.418,16.953 C70.639,16.953 72.479,16.406 73.938,15.313 C75.395,14.219 76.125,12.719 76.125,10.809 C76.125,8.969 75.403,7.52 73.964,6.461 C72.522,5.403 70.674,4.873 68.418,4.873 L59.618,4.873 L59.618,16.953 Z M88.152,33.251 C85.965,35.751 83.43,37 80.55,37 C77.53,37 74.987,35.906 72.922,33.72 C70.856,31.533 69.182,28.166 67.896,23.618 L67.063,21.015 L59.618,21.015 L59.618,31.95 L66.178,31.95 L66.178,36.271 L47.537,36.271 L47.537,32.002 L54.254,32.002 L54.254,4.873 L47.537,4.873 L47.537,0.55 L68.262,0.55 C72.324,0.55 75.534,1.471 77.894,3.311 C80.255,5.151 81.436,7.65 81.436,10.809 C81.436,13.412 80.594,15.608 78.91,17.396 C77.226,19.184 74.857,20.303 71.802,20.754 L72.739,23.305 C73.814,26.36 75.013,28.583 76.333,29.971 C77.651,31.359 79.144,32.053 80.81,32.053 C81.852,32.053 82.737,31.845 83.466,31.428 C84.194,31.012 84.872,30.457 85.497,29.762 L88.152,33.251 L88.152,33.251 Z" id="Fill-7" fill="#1E1D42"></path>
            </g>
            <polyline id="Fill-9" fill="#1E1D42" points="248.255 24.879 248.255 37.271 214.774 37.271 214.774 32.95 221.491 32.95 221.491 5.873 214.774 5.873 214.774 1.55 233.519 1.55 233.519 5.873 226.854 5.873 226.854 32.95 243.205 32.95 243.205 24.879 248.255 24.879"></polyline>
            <polyline id="Fill-10" fill="#1E1D42" points="285.955 24.879 285.955 37.271 252.473 37.271 252.473 32.95 259.191 32.95 259.191 5.873 252.473 5.873 252.473 1.55 271.218 1.55 271.218 5.873 264.554 5.873 264.554 32.95 280.903 32.95 280.903 24.879 285.955 24.879"></polyline>
            <polyline id="Fill-11" fill="#1E1D42" points="302.253 5.873 302.253 32.95 309.021 32.95 309.021 37.271 290.172 37.271 290.172 32.95 296.889 32.95 296.889 5.873 290.172 5.873 290.172 1.55 309.021 1.55 309.021 5.873 302.253 5.873"></polyline>
            <g id="Group-15" transform="translate(312.000000, 0.000000)" fill="#1E1D42">
                <polyline id="Fill-12" points="46.748 5.873 40.239 5.873 40.239 37.584 37.583 37.635 12.538 9.153 12.538 32.95 18.943 32.95 18.943 37.271 0.717 37.271 0.717 32.95 7.435 32.95 7.435 5.873 0.717 5.873 0.717 1.55 12.538 1.55 35.241 27.95 35.241 5.873 28.523 5.873 28.523 1.55 46.748 1.55 46.748 5.873"></polyline>
                <path d="M77.625,21.598 C79.951,23.334 81.114,25.643 81.114,28.523 C81.114,30.398 80.602,32.056 79.579,33.496 C78.554,34.937 77.139,36.04 75.334,36.802 C73.53,37.565 71.498,37.948 69.243,37.948 C66.777,37.948 64.434,37.428 62.213,36.386 C59.991,35.345 57.943,33.887 56.069,32.012 L56.069,37.219 L51.331,37.219 L51.331,25.192 L54.351,25.034 C56.19,27.708 58.428,29.808 61.068,31.335 C63.706,32.863 66.326,33.626 68.929,33.626 C70.874,33.626 72.462,33.21 73.694,32.376 C74.926,31.543 75.543,30.416 75.543,28.992 C75.543,27.43 74.674,26.085 72.939,24.957 C71.204,23.829 68.253,22.727 64.086,21.65 C59.748,20.505 56.572,19.004 54.56,17.146 C52.545,15.29 51.539,13.007 51.539,10.299 C51.539,8.424 52.05,6.768 53.075,5.326 C54.099,3.886 55.478,2.774 57.214,1.994 C58.95,1.213 60.841,0.822 62.89,0.822 C67.714,0.822 71.619,2.592 74.605,6.133 L74.605,1.55 L79.344,1.55 L79.344,13.423 L76.428,13.579 C74.971,10.802 73.181,8.703 71.065,7.279 C68.947,5.856 66.621,5.144 64.086,5.144 C62.039,5.144 60.365,5.586 59.063,6.472 C57.761,7.357 57.11,8.546 57.11,10.038 C57.11,11.567 57.899,12.876 59.48,13.97 C61.059,15.064 63.653,16.097 67.263,17.068 C71.846,18.353 75.299,19.863 77.625,21.598" id="Fill-14"></path>
            </g>
            <polygon id="Fill-16" fill="#F1C254" points="184.305 37.536 205.993 37.536 205.993 33.105 184.305 33.105"></polygon>
            <path d="M202.348,15.182 C202.348,16.763 202.028,18.191 201.398,19.42 C200.771,20.643 199.926,21.567 198.815,22.245 C197.698,22.926 196.458,23.257 195.021,23.257 C193.554,23.257 192.253,22.922 191.154,22.26 C190.044,21.593 189.208,20.678 188.595,19.462 C187.975,18.231 187.66,16.792 187.66,15.182 C187.66,13.594 187.975,12.159 188.597,10.916 C189.208,9.691 190.051,8.765 191.172,8.085 C192.298,7.404 193.558,7.072 195.021,7.072 C196.458,7.072 197.699,7.404 198.813,8.082 C199.927,8.765 200.773,9.689 201.397,10.907 C202.028,12.14 202.348,13.578 202.348,15.182 Z M206.476,8.358 C205.326,6.342 203.719,4.748 201.699,3.619 C199.693,2.5 197.446,1.932 195.021,1.932 C192.571,1.932 190.313,2.5 188.306,3.619 C186.29,4.748 184.683,6.335 183.533,8.338 C182.386,10.336 181.805,12.638 181.805,15.182 C181.805,17.702 182.386,19.993 183.533,21.992 C184.685,23.998 186.292,25.585 188.307,26.709 C190.313,27.83 192.572,28.398 195.021,28.398 C197.446,28.398 199.693,27.83 201.699,26.709 C203.716,25.585 205.322,23.997 206.474,21.992 C207.621,19.994 208.203,17.702 208.203,15.182 C208.203,12.662 207.622,10.365 206.476,8.358 L206.476,8.358 Z" id="Fill-17" fill="#1E1D42"></path>
        </g>
    </g>
</svg>